<?xml version="1.0" encoding="UTF-8" standalone="no"?>
<!DOCTYPE svg PUBLIC "-//W3C//DTD SVG 1.1//EN"
 "http://www.w3.org/Graphics/SVG/1.1/DTD/svg11.dtd">
<!-- Generated by graphviz version 2.40.1 (20161225.0304)
 -->
<!-- Title: dependencies Pages: 1 -->
<svg width="504pt" height="284pt"
 viewBox="0.00 0.00 504.00 284.00" xmlns="http://www.w3.org/2000/svg" xmlns:xlink="http://www.w3.org/1999/xlink">
<g id="graph0" class="graph" transform="scale(1 1) rotate(0) translate(4 280)">
<title>dependencies</title>
<polygon fill="#ffffff" stroke="transparent" points="-4,4 -4,-280 500,-280 500,4 -4,4"/>
<text text-anchor="start" x="227.0091" y="-42.4" font-family="sans-serif" font-weight="bold" font-size="14.00" fill="#000000">Legend</text>
<polygon fill="#ffffb3" stroke="transparent" points="14,-10 14,-30 34,-30 34,-10 14,-10"/>
<text text-anchor="start" x="37.629" y="-15.4" font-family="sans-serif" font-size="14.00" fill="#000000"> &#160;Declarations</text>
<polygon fill="#8dd3c7" stroke="transparent" points="127,-10 127,-30 147,-30 147,-10 127,-10"/>
<text text-anchor="start" x="150.7251" y="-15.4" font-family="sans-serif" font-size="14.00" fill="#000000"> &#160;Module</text>
<polygon fill="#80b1d3" stroke="transparent" points="213,-10 213,-30 233,-30 233,-10 213,-10"/>
<text text-anchor="start" x="236.7812" y="-15.4" font-family="sans-serif" font-size="14.00" fill="#000000"> &#160;Bootstrap</text>
<polygon fill="#fdb462" stroke="transparent" points="310,-10 310,-30 330,-30 330,-10 310,-10"/>
<text text-anchor="start" x="333.6732" y="-15.4" font-family="sans-serif" font-size="14.00" fill="#000000"> &#160;Providers</text>
<polygon fill="#fb8072" stroke="transparent" points="406,-10 406,-30 426,-30 426,-10 406,-10"/>
<text text-anchor="start" x="429.7258" y="-15.4" font-family="sans-serif" font-size="14.00" fill="#000000"> &#160;Exports</text>
<g id="clust1" class="cluster">
<title>cluster_MatJumbotronModule</title>
<polygon fill="none" stroke="#000000" stroke-dasharray="1,5" points="33.5,-70 33.5,-268 462.5,-268 462.5,-70 33.5,-70"/>
</g>
<g id="clust2" class="cluster">
<title>cluster_MatJumbotronModule_declarations</title>
<polygon fill="none" stroke="#000000" points="45.5,-78 45.5,-130 451.5,-130 451.5,-78 45.5,-78"/>
</g>
<g id="clust6" class="cluster">
<title>cluster_MatJumbotronModule_exports</title>
<polygon fill="none" stroke="#000000" points="41.5,-208 41.5,-260 454.5,-260 454.5,-208 41.5,-208"/>
</g>
<!-- MatJumbotronComponent -->
<g id="node1" class="node">
<title>MatJumbotronComponent</title>
<polygon fill="#ffffb3" stroke="#000000" points="443.2688,-122 279.7312,-122 279.7312,-86 443.2688,-86 443.2688,-122"/>
<text text-anchor="middle" x="361.5" y="-99.8" font-family="Times,serif" font-size="14.00" fill="#000000">MatJumbotronComponent</text>
</g>
<!-- MatJumbotronModule -->
<g id="node3" class="node">
<title>MatJumbotronModule</title>
<polygon fill="#8dd3c7" stroke="#000000" points="229.486,-187 226.486,-191 205.486,-191 202.486,-187 87.514,-187 87.514,-151 229.486,-151 229.486,-187"/>
<text text-anchor="middle" x="158.5" y="-164.8" font-family="Times,serif" font-size="14.00" fill="#000000">MatJumbotronModule</text>
</g>
<!-- MatJumbotronComponent&#45;&gt;MatJumbotronModule -->
<g id="edge1" class="edge">
<title>MatJumbotronComponent&#45;&gt;MatJumbotronModule</title>
<path fill="none" stroke="#000000" d="M388.7948,-122.0225C388.7948,-139.3734 388.7948,-163 388.7948,-163 388.7948,-163 239.7896,-163 239.7896,-163"/>
<polygon fill="#000000" stroke="#000000" points="239.7896,-159.5001 229.7896,-163 239.7895,-166.5001 239.7896,-159.5001"/>
</g>
<!-- MatJumbotronContentComponent -->
<g id="node2" class="node">
<title>MatJumbotronContentComponent</title>
<polygon fill="#ffffb3" stroke="#000000" points="261.601,-122 53.399,-122 53.399,-86 261.601,-86 261.601,-122"/>
<text text-anchor="middle" x="157.5" y="-99.8" font-family="Times,serif" font-size="14.00" fill="#000000">MatJumbotronContentComponent</text>
</g>
<!-- MatJumbotronContentComponent&#45;&gt;MatJumbotronModule -->
<g id="edge2" class="edge">
<title>MatJumbotronContentComponent&#45;&gt;MatJumbotronModule</title>
<path fill="none" stroke="#000000" d="M158.5,-122.1061C158.5,-122.1061 158.5,-140.991 158.5,-140.991"/>
<polygon fill="#000000" stroke="#000000" points="155.0001,-140.9909 158.5,-150.991 162.0001,-140.991 155.0001,-140.9909"/>
</g>
<!-- MatJumbotronComponent  -->
<g id="node4" class="node">
<title>MatJumbotronComponent </title>
<polygon fill="#fb8072" stroke="#000000" points="446.2688,-252 278.7312,-252 278.7312,-216 446.2688,-216 446.2688,-252"/>
<text text-anchor="middle" x="362.5" y="-229.8" font-family="Times,serif" font-size="14.00" fill="#000000">MatJumbotronComponent </text>
</g>
<!-- MatJumbotronModule&#45;&gt;MatJumbotronComponent  -->
<g id="edge3" class="edge">
<title>MatJumbotronModule&#45;&gt;MatJumbotronComponent </title>
<path fill="none" stroke="#000000" stroke-dasharray="5,2" d="M229.7127,-175C278.4178,-175 334.2052,-175 334.2052,-175 334.2052,-175 334.2052,-205.9775 334.2052,-205.9775"/>
<polygon fill="#000000" stroke="#000000" points="330.7053,-205.9774 334.2052,-215.9775 337.7053,-205.9775 330.7053,-205.9774"/>
</g>
<!-- MatJumbotronContentComponent  -->
<g id="node5" class="node">
<title>MatJumbotronContentComponent </title>
<polygon fill="#fb8072" stroke="#000000" points="261.1014,-252 49.8986,-252 49.8986,-216 261.1014,-216 261.1014,-252"/>
<text text-anchor="middle" x="155.5" y="-229.8" font-family="Times,serif" font-size="14.00" fill="#000000">MatJumbotronContentComponent </text>
</g>
<!-- MatJumbotronModule&#45;&gt;MatJumbotronContentComponent  -->
<g id="edge4" class="edge">
<title>MatJumbotronModule&#45;&gt;MatJumbotronContentComponent </title>
<path fill="none" stroke="#000000" stroke-dasharray="5,2" d="M158.5,-187.1061C158.5,-187.1061 158.5,-205.991 158.5,-205.991"/>
<polygon fill="#000000" stroke="#000000" points="155.0001,-205.9909 158.5,-215.991 162.0001,-205.991 155.0001,-205.9909"/>
</g>
</g>
</svg>
